<?xml version="1.0" encoding="utf-8"?>
<!-- Generator: Adobe Illustrator 18.0.0, SVG Export Plug-In . SVG Version: 6.00 Build 0)  -->
<!DOCTYPE svg PUBLIC "-//W3C//DTD SVG 1.1//EN" "http://www.w3.org/Graphics/SVG/1.1/DTD/svg11.dtd">
<svg version="1.1" id="castle" xmlns="http://www.w3.org/2000/svg" xmlns:xlink="http://www.w3.org/1999/xlink" x="0px" y="0px"
	 viewBox="0 0 595.3 841.9" enable-background="new 0 0 595.3 841.9" xml:space="preserve">
	<line id="a" fill="none" stroke="#1A171B" stroke-miterlimit="10" x1="291.6" y1="419.5" x2="291.6" y2="426.4"/>
	<line id="b" fill="none" stroke="#1A171B" stroke-miterlimit="10" x1="294.3" y1="419.5" x2="294.3" y2="426.4"/>
	<line id="d_1_" fill="none" stroke="#1A171B" stroke-miterlimit="10" x1="291.5" y1="419.5" x2="294.5" y2="419.5"/>
	<g>
		<line id="c" fill="none" stroke="#1A171B" stroke-miterlimit="10" x1="291.1" y1="419.1" x2="294.8" y2="419.1"/>
		<line id="d" fill="none" stroke="#1A171B" stroke-miterlimit="10" x1="291.5" y1="419.1" x2="291.5" y2="419.5"/>
		<line id="d_2_" fill="none" stroke="#1A171B" stroke-miterlimit="10" x1="294.5" y1="419.1" x2="294.5" y2="419.5"/>
	</g>
	<g>
		<line id="f" fill="none" stroke="#1A171B" stroke-miterlimit="10" x1="291.6" y1="426.4" x2="291.3" y2="427.3"/>
		<line id="g" fill="none" stroke="#1A171B" stroke-miterlimit="10" x1="294.3" y1="426.4" x2="294.6" y2="427.3"/>
		<polyline id="i" fill="none" stroke="#1A171B" stroke-miterlimit="10" points="291.1,427.3 294.8,427.3 294.8,427.7 291.1,427.7 
			291.1,427.3 		"/>
	</g>
	<polyline id="e" fill="none" stroke="#1A171B" stroke-miterlimit="10" points="291.1,419.1 291.1,418.4 291.5,418.4 291.5,418.7 
		291.9,418.7 291.9,418.4 292.3,418.4 292.3,418.7 292.8,418.7 292.8,418.4 293.2,418.4 293.2,418.7 293.6,418.7 293.6,418.4 
		294,418.4 294,418.7 294.4,418.7 294.4,418.4 294.8,418.4 294.8,419.1 	"/>
	<polyline id="h" fill="none" stroke="#1A171B" stroke-miterlimit="10" points="291.5,418.7 293,415.3 294.4,418.7 	"/>
	<polyline id="j" fill="none" stroke="#1A171B" stroke-miterlimit="10" points="293,415.3 293,413.7 294.1,413.7 294.1,414.5 
		293,414.5 	"/>
</svg>
