<?xml version="1.0" encoding="utf-8"?>
<!-- Generator: Adobe Illustrator 18.0.0, SVG Export Plug-In . SVG Version: 6.00 Build 0)  -->
<!DOCTYPE svg PUBLIC "-//W3C//DTD SVG 1.1//EN" "http://www.w3.org/Graphics/SVG/1.1/DTD/svg11.dtd">
<svg version="1.1" id="fish" xmlns="http://www.w3.org/2000/svg" xmlns:xlink="http://www.w3.org/1999/xlink" x="0px" y="0px"
	 viewBox="831.6 407.5 37.7 26.8" enable-background="new 831.6 407.5 37.7 26.8" xml:space="preserve">
<path fill="none" stroke="#000000" stroke-width="2" stroke-linecap="round" stroke-linejoin="round" stroke-miterlimit="10" d="
	M741.3,364.3c16.1,10.9,28.4,26.4,43.1,39.3c27.4,24,62.8,38.2,98.9,42.7c32,4,65.8,0.5,93.7-15.8c10.8-6.3,21.5-16.7,20.5-29.1
	c-0.6-7.4-5.6-13.9-11.7-18c-6.2-4.1-13.5-6.1-20.8-7.3c-16.6-2.8-33.7-2-50.2,0.9c-14.5,2.6-28.7,6.8-42.3,12.6
	c-23.4,10.1-44.5,24.6-66.2,37.7c-32.7,19.8-67.3,36.7-103.1,50.4c19.9-11,40-23.7,52-42.9c12.1-19.3,4-49.2-11.2-66.1"/>
<path fill="none" stroke="#000000" stroke-width="2" stroke-linecap="round" stroke-linejoin="round" stroke-miterlimit="10" d="
	M952,392.6c-2.3,0.2-4.5,0.9-6.6,1.8c-0.9,0.3-1.7,0.8-2.4,1.5c-0.7,0.7-1.1,1.6-0.9,2.6c0.2,1.1,1.3,1.9,2.4,2.3
	c1.8,0.7,3.7,0.7,5.7,0.6c3.5-0.1,7.1-0.8,9.6-3.1c0.3-0.4,0.6-0.8,0.8-1.2c0.4-1.3-0.8-2.5-1.9-3.2
	C956.6,392.6,954.3,392.4,952,392.6"/>
</svg>
